<svg width="800" height="800" xmlns="http://www.w3.org/2000/svg">
 <g>
  <title>Layer 1</title>
  <ellipse stroke="#020202" stroke-width="70" fill-opacity="0" fill="#ffffff" cx="400.32147" cy="400" id="svg_1" rx="365" ry="365" transform="rotate(-0.277761 400.321 400)"/>
  <g stroke="null" id="svg_2">
   <path stroke="#4c4c4c" id="svg_3" d="m652.21356,582.4552l-122.86084,-245.72168a26.32592,26.32592 0 0 0 -47.09476,0l-44.98282,89.96588a184.54152,184.54152 0 0 1 -85.0372,-29.48859a235.99809,235.99809 0 0 0 55.5636,-127.6861l45.34915,0a26.32732,26.32732 0 0 0 0,-52.65462l-114.08502,0l0,-26.32733a26.32732,26.32732 0 0 0 -52.65463,0l0,26.32733l-114.08505,0a26.32732,26.32732 0 0 0 0,52.65462l182.38062,0a183.55583,183.55583 0 0 1 -41.99612,92.87466a183.39784,183.39784 0 0 1 -27.13608,-42.4332a26.32746,26.32746 0 0 0 -47.84683,21.98227a235.76579,235.76579 0 0 0 35.54041,55.32291a183.17032,183.17032 0 0 1 -100.94199,30.21729a26.32732,26.32732 0 1 0 0,52.65463a235.6795,235.6795 0 0 0 140.48035,-46.2597a237.8835,237.8835 0 0 0 99.57324,42.60623l-52.98239,105.96539a26.32655,26.32655 0 1 0 47.0947,23.54639l27.82632,-55.65204l142.97427,0l27.82635,55.65204a26.32655,26.32655 0 1 0 47.09473,-23.54639zm-191.56778,-84.76035l45.15958,-90.31812l45.15955,90.31812l-90.31912,0z"/>
  </g>
 </g>

</svg>